<?xml version="1.0" standalone="no"?>
<!DOCTYPE svg PUBLIC "-//W3C//DTD SVG 20010904//EN"
 "http://www.w3.org/TR/2001/REC-SVG-20010904/DTD/svg10.dtd">
<svg version="1.0" xmlns="http://www.w3.org/2000/svg"
 width="1068.000000pt" height="1293.000000pt" viewBox="0 0 1068.000000 1293.000000"
 preserveAspectRatio="xMidYMid meet">

<g transform="translate(0.000000,1293.000000) scale(0.100000,-0.100000)"
fill="#000000" stroke="none">
<path d="M4009 12765 c-253 -50 -470 -239 -554 -482 -29 -84 -45 -204 -45
-345 l0 -108 -1032 0 c-1130 0 -1127 0 -1307 -59 -426 -141 -745 -497 -843
-941 l-23 -105 0 -2485 c0 -2348 1 -2490 18 -2575 85 -430 371 -778 769 -938
124 -50 233 -75 382 -87 90 -7 1390 -10 4121 -7 3741 3 3995 4 4075 20 541
111 946 533 1019 1061 8 54 11 837 11 2524 0 2118 -2 2459 -15 2539 -75 460
-410 852 -852 993 -190 61 -167 60 -1304 60 l-1039 0 0 139 c0 214 -32 341
-120 477 -51 77 -157 179 -237 228 -74 44 -176 81 -264 95 -103 17 -2675 13
-2760 -4z m1256 -21 c-9 -9 -19 -13 -23 -10 -3 4 0 11 8 16 24 15 33 11 15 -6z
m55 -104 c0 -5 -2 -10 -4 -10 -3 0 -8 5 -11 10 -3 6 -1 10 4 10 6 0 11 -4 11
-10z m-217 -60 c-10 -9 -20 -15 -23 -13 -3 3 3 10 12 17 10 7 14 17 10 21 -4
5 -1 5 6 1 11 -6 10 -12 -5 -26z m148 13 c13 -16 12 -17 -3 -4 -17 13 -22 21
-14 21 2 0 10 -8 17 -17z m-181 -43 c0 -5 -5 -10 -11 -10 -5 0 -7 5 -4 10 3 6
8 10 11 10 2 0 4 -4 4 -10z m110 0 c0 -5 -2 -10 -4 -10 -3 0 -8 5 -11 10 -3 6
-1 10 4 10 6 0 11 -4 11 -10z m-160 -51 c0 -5 -4 -7 -10 -4 -5 3 -10 1 -10 -6
0 -7 -3 -10 -6 -6 -8 7 4 27 17 27 5 0 9 -5 9 -11z m122 -9 c10 0 18 -4 18 -9
0 -6 -12 -6 -30 0 -16 6 -30 16 -30 22 0 7 4 7 12 -1 7 -7 20 -12 30 -12z
m-279 -145 c-3 -9 -8 -14 -10 -11 -3 3 -2 9 2 15 9 16 15 13 8 -4z m177 11 c0
-3 -4 -8 -10 -11 -5 -3 -10 -1 -10 4 0 6 5 11 10 11 6 0 10 -2 10 -4z m-90
-26 c0 -5 -2 -10 -4 -10 -3 0 -8 5 -11 10 -3 6 -1 10 4 10 6 0 11 -4 11 -10z
m-100 -19 c0 -5 -13 -11 -30 -14 -20 -5 -28 -11 -24 -21 3 -8 1 -17 -5 -21 -7
-3 -11 2 -11 14 0 12 11 27 28 35 32 18 42 19 42 7z m60 -56 c7 -9 8 -15 2
-15 -5 0 -12 7 -16 15 -3 8 -4 15 -2 15 2 0 9 -7 16 -15z m-95 -25 c3 -5 1
-10 -4 -10 -6 0 -11 5 -11 10 0 6 2 10 4 10 3 0 8 -4 11 -10z m35 -45 c14 -19
14 -19 -2 -6 -10 7 -18 18 -18 24 0 6 1 8 3 6 1 -2 9 -13 17 -24z m-166 -20
c-4 -8 -11 -15 -16 -15 -6 0 -5 6 2 15 7 8 14 15 16 15 2 0 1 -7 -2 -15z m-16
-50 c-3 -3 -9 2 -12 12 -6 14 -5 15 5 6 7 -7 10 -15 7 -18z m36 -44 c-2 -3
-12 3 -22 13 -16 17 -16 18 5 5 12 -7 20 -15 17 -18z m66 15 c0 -3 -4 -8 -10
-11 -5 -3 -10 -1 -10 4 0 6 5 11 10 11 6 0 10 -2 10 -4z m-90 -90 c0 -2 -7 -9
-15 -16 -13 -11 -14 -10 -9 4 5 14 24 23 24 12z m-67 -53 c-7 -2 -19 -2 -25 0
-7 3 -2 5 12 5 14 0 19 -2 13 -5z m-99 -82 c31 -34 4 -24 -29 11 -20 21 -23
28 -10 21 11 -6 29 -21 39 -32z m-123 12 c13 -16 12 -17 -3 -4 -10 7 -18 15
-18 17 0 8 8 3 21 -13z m53 -65 c-7 -11 -7 -11 -24 22 -13 25 -13 25 8 6 12
-10 19 -23 16 -28z m-100 17 c-4 -8 -8 -15 -10 -15 -2 0 -4 7 -4 15 0 8 4 15
10 15 5 0 7 -7 4 -15z m88 -77 c-8 -8 -9 -4 -5 13 4 13 8 18 11 10 2 -7 -1
-18 -6 -23z m-67 2 c3 -5 1 -10 -4 -10 -6 0 -11 5 -11 10 0 6 2 10 4 10 3 0 8
-4 11 -10z m4821 -1015 c237 -116 295 -413 119 -603 -155 -168 -408 -167 -563
2 -68 75 -95 146 -96 251 -1 95 19 156 75 232 78 105 189 156 327 149 64 -3
95 -10 138 -31z m-3554 -360 c363 -42 672 -153 958 -342 135 -90 194 -137 309
-248 224 -215 393 -463 516 -757 16 -38 32 -65 38 -61 6 3 7 1 3 -5 -3 -6 9
-68 28 -137 65 -236 80 -352 80 -605 0 -165 -5 -251 -18 -325 -82 -482 -283
-876 -615 -1205 -304 -302 -654 -494 -1061 -584 -174 -38 -277 -49 -475 -48
-481 0 -914 145 -1299 436 -466 351 -767 874 -846 1469 -15 119 -12 419 6 549
51 371 202 735 423 1023 461 601 1217 926 1953 840z m-3188 -511 c7 -19 2 -18
-19 6 -16 17 -16 20 -3 15 9 -4 19 -13 22 -21z m6000 0 c7 -19 2 -18 -19 6
-16 17 -16 20 -3 15 9 -4 19 -13 22 -21z m-5957 -20 c-3 -3 -12 -4 -19 -1 -8
3 -5 6 6 6 11 1 17 -2 13 -5z m6000 0 c-3 -3 -12 -4 -19 -1 -8 3 -5 6 6 6 11
1 17 -2 13 -5z m-6099 -49 c-3 -3 -9 2 -12 12 -6 14 -5 15 5 6 7 -7 10 -15 7
-18z m6000 0 c-3 -3 -9 2 -12 12 -6 14 -5 15 5 6 7 -7 10 -15 7 -18z m-5968
-20 c7 -9 8 -15 2 -15 -5 0 -12 7 -16 15 -3 8 -4 15 -2 15 2 0 9 -7 16 -15z
m6000 0 c7 -9 8 -15 2 -15 -5 0 -12 7 -16 15 -3 8 -4 15 -2 15 2 0 9 -7 16
-15z m-6100 -26 c0 -6 -4 -7 -10 -4 -5 3 -10 11 -10 16 0 6 5 7 10 4 6 -3 10
-11 10 -16z m6000 0 c0 -6 -4 -7 -10 -4 -5 3 -10 11 -10 16 0 6 5 7 10 4 6 -3
10 -11 10 -16z m-6070 -159 c0 -5 -2 -10 -4 -10 -3 0 -8 5 -11 10 -3 6 -1 10
4 10 6 0 11 -4 11 -10z m6000 0 c0 -5 -2 -10 -4 -10 -3 0 -8 5 -11 10 -3 6 -1
10 4 10 6 0 11 -4 11 -10z m-6196 -36 c3 -8 2 -12 -4 -9 -6 3 -10 10 -10 16 0
14 7 11 14 -7z m6000 0 c3 -8 2 -12 -4 -9 -6 3 -10 10 -10 16 0 14 7 11 14 -7z
m-6063 -61 c-12 -20 -14 -14 -5 12 4 9 9 14 11 11 3 -2 0 -13 -6 -23z m144 7
c15 0 17 -2 6 -9 -15 -10 -51 7 -51 23 0 6 5 5 12 -2 7 -7 21 -12 33 -12z
m5856 -7 c-12 -20 -14 -14 -5 12 4 9 9 14 11 11 3 -2 0 -13 -6 -23z m144 7
c15 0 17 -2 6 -9 -15 -10 -51 7 -51 23 0 6 5 5 12 -2 7 -7 21 -12 33 -12z
m-6095 -113 c0 -6 -6 -3 -12 8 -6 11 -18 29 -27 40 -9 12 -4 8 12 -7 15 -16
27 -34 27 -41z m6000 0 c0 -6 -6 -3 -12 8 -6 11 -18 29 -27 40 -9 12 -4 8 12
-7 15 -16 27 -34 27 -41z m2547 31 c-3 -7 -5 -2 -5 12 0 14 2 19 5 13 2 -7 2
-19 0 -25z m-8727 -52 c0 -3 -4 -8 -10 -11 -5 -3 -10 -1 -10 4 0 6 5 11 10 11
6 0 10 -2 10 -4z m6000 0 c0 -3 -4 -8 -10 -11 -5 -3 -10 -1 -10 4 0 6 5 11 10
11 6 0 10 -2 10 -4z m-5919 -33 c13 -16 12 -17 -3 -4 -17 13 -22 21 -14 21 2
0 10 -8 17 -17z m6000 0 c13 -16 12 -17 -3 -4 -10 7 -18 15 -18 17 0 8 8 3 21
-13z m-6066 -41 c21 -23 36 -42 33 -42 -10 0 -78 74 -78 84 0 5 1 7 3 5 1 -2
20 -23 42 -47z m6000 0 c21 -23 36 -42 33 -42 -10 0 -78 74 -78 84 0 5 1 7 3
5 1 -2 20 -23 42 -47z m2712 -54 c-3 -8 -6 -5 -6 6 -1 11 2 17 5 13 3 -3 4
-12 1 -19z m-8753 -27 c32 -36 13 -31 -24 6 -20 20 -26 31 -15 25 11 -6 29
-20 39 -31z m6000 0 c32 -36 13 -31 -24 6 -20 20 -26 31 -15 25 11 -6 29 -20
39 -31z m-6083 -32 l24 -21 -26 15 c-14 8 -36 17 -50 20 -24 4 -24 4 2 6 15 0
37 -8 50 -20z m6000 0 l24 -21 -26 15 c-14 8 -36 17 -50 20 -24 4 -24 4 2 6
15 0 37 -8 50 -20z m-6083 -13 c-7 -8 -15 -12 -17 -11 -5 6 10 25 20 25 5 0 4
-6 -3 -14z m6000 0 c-7 -8 -15 -12 -17 -11 -5 6 10 25 20 25 5 0 4 -6 -3 -14z
m-5988 -66 c11 -11 16 -20 12 -20 -5 0 -17 9 -27 20 -10 11 -15 20 -12 20 4 0
16 -9 27 -20z m6000 0 c11 -11 16 -20 12 -20 -5 0 -17 9 -27 20 -10 11 -15 20
-12 20 4 0 16 -9 27 -20z m-6102 -45 c-3 -3 -9 2 -12 12 -6 14 -5 15 5 6 7 -7
10 -15 7 -18z m6000 0 c-3 -3 -9 2 -12 12 -6 14 -5 15 5 6 7 -7 10 -15 7 -18z
m-6031 -7 c-3 -8 -6 -5 -6 6 -1 11 2 17 5 13 3 -3 4 -12 1 -19z m6000 0 c-3
-8 -6 -5 -6 6 -1 11 2 17 5 13 3 -3 4 -12 1 -19z m-5953 -24 c3 -8 2 -12 -4
-9 -6 3 -10 10 -10 16 0 14 7 11 14 -7z m6000 0 c3 -8 2 -12 -4 -9 -6 3 -10
10 -10 16 0 14 7 11 14 -7z m-6035 -51 c9 -7 25 -13 36 -14 18 -1 18 -2 2 -6
-24 -6 -67 23 -66 45 0 14 2 14 6 2 4 -8 13 -20 22 -27z m111 34 c0 -2 -12
-14 -27 -28 l-28 -24 24 28 c23 25 31 32 31 24z m5889 -34 c9 -7 25 -13 36
-14 18 -1 18 -2 2 -6 -24 -6 -67 23 -66 45 0 14 2 14 6 2 4 -8 13 -20 22 -27z
m111 34 c0 -2 -12 -14 -27 -28 l-28 -24 24 28 c23 25 31 32 31 24z m-6205 -97
c3 -5 1 -10 -4 -10 -6 0 -11 5 -11 10 0 6 2 10 4 10 3 0 8 -4 11 -10z m-74
-37 c13 -16 12 -17 -3 -4 -17 13 -22 21 -14 21 2 0 10 -8 17 -17z m109 -5 c0
-6 -6 -5 -15 2 -8 7 -15 14 -15 16 0 2 7 1 15 -2 8 -4 15 -11 15 -16z m6005 2
c3 -5 2 -10 -4 -10 -5 0 -13 5 -16 10 -3 6 -2 10 4 10 5 0 13 -4 16 -10z
m-6165 -24 c0 -2 -7 -7 -16 -10 -8 -3 -12 -2 -9 4 6 10 25 14 25 6z m57 -102
c-3 -3 -12 -4 -19 -1 -8 3 -5 6 6 6 11 1 17 -2 13 -5z m323 -2148 c0 -2 -8
-10 -17 -17 -16 -13 -17 -12 -4 4 13 16 21 21 21 13z m6000 0 c0 -2 -8 -10
-17 -17 -16 -13 -17 -12 -4 4 13 16 21 21 21 13z m-5863 -22 c-3 -3 -12 -4
-19 -1 -8 3 -5 6 6 6 11 1 17 -2 13 -5z m6000 0 c-3 -3 -12 -4 -19 -1 -8 3 -5
6 6 6 11 1 17 -2 13 -5z m-6157 -74 c0 -5 -4 -10 -10 -10 -5 0 -10 5 -10 10 0
6 5 10 10 10 6 0 10 -4 10 -10z m6000 0 c0 -5 -4 -10 -10 -10 -5 0 -10 5 -10
10 0 6 5 10 10 10 6 0 10 -4 10 -10z m-5813 -26 c-3 -3 -12 -4 -19 -1 -8 3 -5
6 6 6 11 1 17 -2 13 -5z m110 0 c-3 -3 -12 -4 -19 -1 -8 3 -5 6 6 6 11 1 17
-2 13 -5z m187 -10 c3 -8 2 -12 -4 -9 -6 3 -10 10 -10 16 0 14 7 11 14 -7z
m5703 10 c-3 -3 -12 -4 -19 -1 -8 3 -5 6 6 6 11 1 17 -2 13 -5z m110 0 c-3 -3
-12 -4 -19 -1 -8 3 -5 6 6 6 11 1 17 -2 13 -5z m187 -10 c3 -8 2 -12 -4 -9 -6
3 -10 10 -10 16 0 14 7 11 14 -7z m-5926 -39 c-3 -3 -9 2 -12 12 -6 14 -5 15
5 6 7 -7 10 -15 7 -18z m6000 0 c-3 -3 -9 2 -12 12 -6 14 -5 15 5 6 7 -7 10
-15 7 -18z m-6368 -9 c0 -2 -7 -7 -16 -10 -8 -3 -12 -2 -9 4 6 10 25 14 25 6z
m103 -3 c-7 -2 -19 -2 -25 0 -7 3 -2 5 12 5 14 0 19 -2 13 -5z m5897 3 c0 -2
-7 -7 -16 -10 -8 -3 -12 -2 -9 4 6 10 25 14 25 6z m103 -3 c-7 -2 -19 -2 -25
0 -7 3 -2 5 12 5 14 0 19 -2 13 -5z m-5866 -71 c-4 -13 -5 -12 -6 5 0 12 -5
25 -11 28 -5 3 -10 11 -10 18 0 6 7 1 16 -11 8 -12 13 -30 11 -40z m6000 0
c-4 -13 -5 -12 -6 5 0 12 -5 25 -11 28 -5 3 -10 11 -10 18 0 6 7 1 16 -11 8
-12 13 -30 11 -40z m-5880 6 c-3 -7 -5 -2 -5 12 0 14 2 19 5 13 2 -7 2 -19 0
-25z m6000 0 c-3 -7 -5 -2 -5 12 0 14 2 19 5 13 2 -7 2 -19 0 -25z m-6000 -50
c-3 -8 -6 -5 -6 6 -1 11 2 17 5 13 3 -3 4 -12 1 -19z m6000 0 c-3 -8 -6 -5 -6
6 -1 11 2 17 5 13 3 -3 4 -12 1 -19z m-6600 -45 c-3 -10 -5 -2 -5 17 0 19 2
27 5 18 2 -10 2 -26 0 -35z m320 41 c-3 -3 -12 -4 -19 -1 -8 3 -5 6 6 6 11 1
17 -2 13 -5z m5680 -41 c-3 -10 -5 -2 -5 17 0 19 2 27 5 18 2 -10 2 -26 0 -35z
m320 41 c-3 -3 -12 -4 -19 -1 -8 3 -5 6 6 6 11 1 17 -2 13 -5z m-6017 -18 c0
-3 -4 -8 -10 -11 -5 -3 -10 -1 -10 4 0 6 5 11 10 11 6 0 10 -2 10 -4z m6000 0
c0 -3 -4 -8 -10 -11 -5 -3 -10 -1 -10 4 0 6 5 11 10 11 6 0 10 -2 10 -4z
m-6170 -50 c0 -6 -7 -1 -15 10 -8 10 -15 23 -15 28 0 6 7 1 15 -10 8 -10 15
-23 15 -28z m474 5 c-4 -17 -9 -30 -11 -27 -3 2 -2 19 2 36 9 41 17 33 9 -9z
m5526 -5 c0 -6 -7 -1 -15 10 -8 10 -15 23 -15 28 0 6 7 1 15 -10 8 -10 15 -23
15 -28z m474 5 c-4 -17 -9 -30 -11 -27 -3 2 -2 19 2 36 4 17 9 30 11 27 2 -2
1 -18 -2 -36z m-6037 -33 c-3 -8 -6 -5 -6 6 -1 11 2 17 5 13 3 -3 4 -12 1 -19z
m6000 0 c-3 -8 -6 -5 -6 6 -1 11 2 17 5 13 3 -3 4 -12 1 -19z m-6344 -25 c-7
-2 -19 -2 -25 0 -7 3 -2 5 12 5 14 0 19 -2 13 -5z m227 -3 c0 -5 -2 -10 -4
-10 -3 0 -8 5 -11 10 -3 6 -1 10 4 10 6 0 11 -4 11 -10z m5773 3 c-7 -2 -19
-2 -25 0 -7 3 -2 5 12 5 14 0 19 -2 13 -5z m227 -3 c0 -5 -2 -10 -4 -10 -3 0
-8 5 -11 10 -3 6 -1 10 4 10 6 0 11 -4 11 -10z m-5893 -22 c-3 -8 -6 -5 -6 6
-1 11 2 17 5 13 3 -3 4 -12 1 -19z m6000 0 c-3 -8 -6 -5 -6 6 -1 11 2 17 5 13
3 -3 4 -12 1 -19z m-3537 -2 c0 -3 -4 -8 -10 -11 -5 -3 -10 -1 -10 4 0 6 5 11
10 11 6 0 10 -2 10 -4z m-2930 -20 c0 -3 -4 -8 -10 -11 -5 -3 -10 -1 -10 4 0
6 5 11 10 11 6 0 10 -2 10 -4z m6000 0 c0 -3 -4 -8 -10 -11 -5 -3 -10 -1 -10
4 0 6 5 11 10 11 6 0 10 -2 10 -4z m-5527 -21 c-3 -9 -8 -14 -10 -11 -3 3 -2
9 2 15 9 16 15 13 8 -4z m2485 -24 c9 -6 12 -11 5 -11 -15 0 -43 28 -43 43 0
7 5 4 11 -5 5 -10 17 -22 27 -27z m3515 24 c-3 -9 -8 -14 -10 -11 -3 3 -2 9 2
15 9 16 15 13 8 -4z m-6503 -5 c0 -5 -5 -10 -11 -10 -5 0 -7 5 -4 10 3 6 8 10
11 10 2 0 4 -4 4 -10z m6000 0 c0 -5 -5 -10 -11 -10 -5 0 -7 5 -4 10 3 6 8 10
11 10 2 0 4 -4 4 -10z m-5630 -3 c0 -2 -10 -12 -22 -23 l-23 -19 19 23 c18 21
26 27 26 19z m6000 0 c0 -2 -10 -12 -22 -23 l-23 -19 19 23 c18 21 26 27 26
19z m-6263 -23 c-3 -3 -12 -4 -19 -1 -8 3 -5 6 6 6 11 1 17 -2 13 -5z m6000 0
c-3 -3 -12 -4 -19 -1 -8 3 -5 6 6 6 11 1 17 -2 13 -5z m2736 -29 c-3 -9 -8
-14 -10 -11 -3 3 -2 9 2 15 9 16 15 13 8 -4z m-8753 -35 c0 -5 -2 -10 -4 -10
-3 0 -8 5 -11 10 -3 6 -1 10 4 10 6 0 11 -4 11 -10z m143 3 c-7 -2 -19 -2 -25
0 -7 3 -2 5 12 5 14 0 19 -2 13 -5z m5857 -3 c0 -5 -2 -10 -4 -10 -3 0 -8 5
-11 10 -3 6 -1 10 4 10 6 0 11 -4 11 -10z m143 3 c-7 -2 -19 -2 -25 0 -7 3 -2
5 12 5 14 0 19 -2 13 -5z m-3263 -17 c0 -2 -7 -9 -15 -16 -13 -11 -14 -10 -9
4 5 14 24 23 24 12z m5901 -43 c13 -17 13 -17 -6 -3 -11 8 -22 16 -24 17 -2 2
0 3 6 3 6 0 17 -8 24 -17z m-5968 -10 c-7 -2 -19 -2 -25 0 -7 3 -2 5 12 5 14
0 19 -2 13 -5z m-99 -82 c31 -34 4 -24 -29 11 -20 21 -23 28 -10 21 11 -6 29
-21 39 -32z m6000 0 c30 -33 10 -25 -27 10 -18 18 -23 27 -12 21 11 -5 29 -20
39 -31z m-6123 12 c13 -16 12 -17 -3 -4 -10 7 -18 15 -18 17 0 8 8 3 21 -13z
m6000 0 c13 -16 12 -17 -3 -4 -10 7 -18 15 -18 17 0 8 8 3 21 -13z m-5947 -65
c-7 -11 -7 -11 -24 22 -13 25 -13 25 8 6 12 -10 19 -23 16 -28z m6000 0 c-7
-11 -7 -11 -24 22 -13 25 -13 25 8 6 12 -10 19 -23 16 -28z m-6100 17 c-4 -8
-8 -15 -10 -15 -2 0 -4 7 -4 15 0 8 4 15 10 15 5 0 7 -7 4 -15z m6000 0 c-4
-8 -8 -15 -10 -15 -2 0 -4 7 -4 15 0 8 4 15 10 15 5 0 7 -7 4 -15z m-5912 -77
c-8 -8 -9 -4 -5 13 4 13 8 18 11 10 2 -7 -1 -18 -6 -23z m6000 0 c-8 -8 -9 -4
-5 13 4 13 8 18 11 10 2 -7 -1 -18 -6 -23z m-6067 2 c3 -5 1 -10 -4 -10 -6 0
-11 5 -11 10 0 6 2 10 4 10 3 0 8 -4 11 -10z m6000 0 c3 -5 1 -10 -4 -10 -6 0
-11 5 -11 10 0 6 2 10 4 10 3 0 8 -4 11 -10z"/>
<path d="M5245 9774 c-129 -18 -235 -41 -320 -69 -560 -183 -962 -651 -1062
-1235 -22 -130 -21 -374 2 -505 37 -215 116 -416 230 -592 108 -166 240 -304
399 -417 737 -526 1752 -324 2235 445 91 145 171 351 208 534 28 140 25 454
-6 595 -32 152 -63 238 -136 385 -159 319 -402 559 -719 711 -219 104 -384
143 -631 149 -93 2 -183 1 -200 -1z m-232 -111 c-7 -2 -19 -2 -25 0 -7 3 -2 5
12 5 14 0 19 -2 13 -5z m-156 -9 c-3 -3 -12 -4 -19 -1 -8 3 -5 6 6 6 11 1 17
-2 13 -5z m80 0 c-3 -3 -12 -4 -19 -1 -8 3 -5 6 6 6 11 1 17 -2 13 -5z m98 -4
c-3 -5 -12 -10 -18 -10 -7 0 -6 4 3 10 19 12 23 12 15 0z m-215 -10 c0 -5 -2
-10 -4 -10 -3 0 -8 5 -11 10 -3 6 -1 10 4 10 6 0 11 -4 11 -10z m-34 -26 c18
-15 18 -15 -3 -5 -30 15 -38 14 -23 -4 7 -8 18 -15 26 -15 7 0 16 -4 19 -10 4
-7 -2 -7 -19 0 -14 5 -34 7 -43 4 -13 -4 -14 -3 -5 3 7 6 12 14 11 19 -5 28 8
31 37 8z m247 9 c-7 -2 -19 -2 -25 0 -7 3 -2 5 12 5 14 0 19 -2 13 -5z m-336
-38 c0 -8 -4 -12 -9 -9 -5 3 -6 10 -3 15 9 13 12 11 12 -6z m423 -45 c0 -5 -2
-10 -4 -10 -3 0 -8 5 -11 10 -3 6 -1 10 4 10 6 0 11 -4 11 -10z m98 -24 c-7
-8 -15 -12 -17 -11 -5 6 10 25 20 25 5 0 4 -6 -3 -14z m-596 -33 c-3 -16 -7
-22 -10 -15 -4 13 4 42 11 42 2 0 2 -12 -1 -27z m315 11 c-3 -3 -12 -4 -19 -1
-8 3 -5 6 6 6 11 1 17 -2 13 -5z m-333 -40 c3 -8 2 -12 -4 -9 -6 3 -10 10 -10
16 0 14 7 11 14 -7z m236 1 c-7 -8 -18 -15 -24 -15 -6 0 -2 7 8 15 25 19 32
19 16 0z m240 -7 c0 -6 -6 -5 -15 2 -8 7 -15 14 -15 16 0 2 7 1 15 -2 8 -4 15
-11 15 -16z m144 -14 c5 -14 4 -15 -9 -4 -17 14 -19 20 -6 20 5 0 12 -7 15
-16z m-271 -1 c-7 -2 -19 -2 -25 0 -7 3 -2 5 12 5 14 0 19 -2 13 -5z m-294
-57 c-9 -8 -10 -7 -5 7 3 10 7 26 7 35 1 9 4 6 6 -7 3 -13 -1 -28 -8 -35z
m-24 25 c-3 -6 -11 -8 -17 -5 -6 4 -15 0 -20 -7 -8 -12 -9 -11 -5 1 2 8 12 14
21 14 9 -1 16 3 16 9 0 6 3 8 6 4 3 -3 3 -11 -1 -16z m480 -37 c-9 -16 -13
-20 -9 -9 4 11 7 28 8 37 0 10 4 14 9 9 5 -5 2 -21 -8 -37z m-335 -4 c0 -5 -5
-10 -11 -10 -5 0 -7 5 -4 10 3 6 8 10 11 10 2 0 4 -4 4 -10z m-163 -32 c-3 -8
-6 -5 -6 6 -1 11 2 17 5 13 3 -3 4 -12 1 -19z m-20 -30 c-3 -7 -5 -2 -5 12 0
14 2 19 5 13 2 -7 2 -19 0 -25z m503 28 c0 -3 -4 -8 -10 -11 -5 -3 -10 -1 -10
4 0 6 5 11 10 11 6 0 10 -2 10 -4z m197 -18 c-3 -8 -6 -5 -6 6 -1 11 2 17 5
13 3 -3 4 -12 1 -19z m-690 -80 c-3 -7 -5 -2 -5 12 0 14 2 19 5 13 2 -7 2 -19
0 -25z m642 -28 c1 -13 0 -13 -9 0 -5 8 -9 26 -9 40 l1 25 8 -25 c4 -14 8 -32
9 -40z m-454 40 c3 -5 1 -10 -4 -10 -6 0 -11 5 -11 10 0 6 2 10 4 10 3 0 8 -4
11 -10z m195 -14 c0 -2 -8 -10 -17 -17 -16 -13 -17 -12 -4 4 13 16 21 21 21
13z m-115 -16 c3 -6 -1 -7 -9 -4 -18 7 -21 14 -7 14 6 0 13 -4 16 -10z m201
-38 c-17 -16 -18 -16 -5 5 7 12 15 20 18 17 3 -2 -3 -12 -13 -22z m-361 -1 c3
-5 2 -12 -3 -15 -5 -3 -9 1 -9 9 0 17 3 19 12 6z m510 -50 c-3 -6 -11 -11 -16
-11 -5 0 -4 6 3 14 14 16 24 13 13 -3z m-470 -11 c-3 -5 -12 -10 -18 -10 -7 0
-6 4 3 10 19 12 23 12 15 0z m260 -10 c3 -6 -1 -7 -9 -4 -18 7 -21 14 -7 14 6
0 13 -4 16 -10z m183 -15 c-3 -3 -9 2 -12 12 -6 14 -5 15 5 6 7 -7 10 -15 7
-18z m-391 9 c-3 -3 -12 -4 -19 -1 -8 3 -5 6 6 6 11 1 17 -2 13 -5z m150 -70
c-3 -3 -12 -4 -19 -1 -8 3 -5 6 6 6 11 1 17 -2 13 -5z m533 -2092 c0 -15 -2
-15 -10 -2 -13 20 -13 33 0 25 6 -3 10 -14 10 -23z m60 -66 c0 -3 -4 -8 -10
-11 -5 -3 -10 -1 -10 4 0 6 5 11 10 11 6 0 10 -2 10 -4z m-30 -26 c0 -5 -5
-10 -11 -10 -5 0 -7 5 -4 10 3 6 8 10 11 10 2 0 4 -4 4 -10z m-110 -55 c19
-19 31 -35 28 -35 -3 0 -22 16 -42 35 -21 19 -33 35 -29 35 5 0 24 -16 43 -35z
m-335 15 c-3 -5 -12 -10 -18 -10 -7 0 -6 4 3 10 19 12 23 12 15 0z m245 -4 c0
-3 -4 -8 -10 -11 -5 -3 -10 -1 -10 4 0 6 5 11 10 11 6 0 10 -2 10 -4z m-195
-26 c3 -6 -1 -7 -9 -4 -18 7 -21 14 -7 14 6 0 13 -4 16 -10z m199 -16 c5 -14
4 -15 -9 -4 -17 14 -19 20 -6 20 5 0 12 -7 15 -16z m-68 -31 c-10 -10 -19 5
-10 18 6 11 8 11 12 0 2 -7 1 -15 -2 -18z m14 -28 c7 -9 8 -15 2 -15 -5 0 -12
7 -16 15 -3 8 -4 15 -2 15 2 0 9 -7 16 -15z"/>
<path d="M760 3330 l0 -760 145 0 145 0 2 492 3 492 184 -299 c102 -165 188
-302 191 -305 3 -3 41 -65 85 -138 44 -73 95 -157 113 -187 l33 -55 154 0 155
0 0 760 0 760 -140 0 -140 0 0 -505 c0 -278 -3 -505 -8 -505 -4 0 -23 28 -42
62 -19 35 -81 140 -139 234 -59 95 -180 294 -271 443 l-165 270 -152 1 -153 0
0 -760z m1100 36 c0 -3 -4 -8 -10 -11 -5 -3 -10 -1 -10 4 0 6 5 11 10 11 6 0
10 -2 10 -4z m10 -71 c23 -26 26 -33 10 -20 -30 24 -49 47 -50 59 0 5 1 7 3 5
1 -2 18 -22 37 -44z m-36 -84 c32 -36 13 -31 -24 6 -20 20 -26 31 -15 25 11
-6 29 -20 39 -31z m-100 -20 c4 -5 -3 -7 -14 -4 -23 6 -26 13 -6 13 8 0 17 -4
20 -9z m-187 -143 c-3 -8 -6 -5 -6 6 -1 11 2 17 5 13 3 -3 4 -12 1 -19z m12
-75 c9 -7 25 -13 36 -14 18 -1 18 -2 2 -6 -24 -6 -67 23 -66 45 0 14 2 14 6 2
4 -8 13 -20 22 -27z m111 34 c0 -2 -12 -14 -27 -28 l-28 -24 24 28 c23 25 31
32 31 24z m-151 -161 c-3 -3 -11 5 -18 17 -13 21 -12 21 5 5 10 -10 16 -20 13
-22z"/>
<path d="M4190 3955 l0 -135 145 0 145 0 0 135 0 135 -145 0 -145 0 0 -135z"/>
<path d="M2705 3691 c-194 -32 -333 -128 -409 -282 -48 -100 -66 -176 -66
-284 1 -291 134 -479 397 -556 85 -25 241 -27 327 -4 188 50 340 204 391 395
19 73 19 249 0 324 -50 191 -198 343 -379 390 -71 19 -198 27 -261 17z m172
-246 c61 -18 126 -78 154 -139 45 -103 45 -270 0 -370 -23 -50 -72 -101 -125
-129 -57 -30 -165 -30 -221 0 -54 29 -100 78 -127 138 -31 70 -38 239 -13 320
33 105 144 195 241 195 22 0 63 -7 91 -15z"/>
<path d="M5280 3687 c-30 -7 -71 -21 -90 -31 -51 -27 -121 -86 -115 -97 4 -5
-1 -6 -9 -3 -9 4 -18 -1 -22 -10 -14 -36 -24 -12 -24 54 l0 70 -132 0 -133 0
0 -550 0 -550 148 0 148 0 -2 338 c-1 227 2 353 10 386 6 26 9 58 6 70 -2 11
-2 16 1 9 3 -8 17 1 36 23 17 19 44 42 61 51 20 10 26 17 18 23 -25 15 138 1
168 -15 65 -33 66 -37 69 -482 l3 -403 143 0 144 0 4 348 c4 288 8 356 22 399
31 97 102 153 196 153 71 0 107 -22 133 -78 20 -45 21 -65 25 -434 l4 -388
145 0 145 0 -4 428 c-5 478 -6 486 -76 577 -46 61 -121 102 -215 116 -129 20
-249 -18 -353 -114 l-56 -51 -21 29 c-39 55 -86 93 -139 113 -71 27 -170 34
-238 19z m-143 -91 c-10 -8 -13 -16 -7 -18 5 -1 2 -8 -9 -15 -16 -10 -19 -9
-17 4 2 15 33 43 45 43 3 0 -2 -7 -12 -14z m-140 -2 c-3 -3 -12 -4 -19 -1 -8
3 -5 6 6 6 11 1 17 -2 13 -5z m216 -94 c3 -11 1 -18 -4 -14 -5 3 -9 12 -9 20
0 20 7 17 13 -6z m-226 -22 c-3 -8 -6 -5 -6 6 -1 11 2 17 5 13 3 -3 4 -12 1
-19z m-147 -23 c-7 -8 -18 -15 -24 -15 -6 0 -2 7 8 15 25 19 32 19 16 0z m160
1 c0 -3 -4 -8 -10 -11 -5 -3 -10 -1 -10 4 0 6 5 11 10 11 6 0 10 -2 10 -4z
m80 -11 c7 -9 8 -15 2 -15 -5 0 -12 7 -16 15 -3 8 -4 15 -2 15 2 0 9 -7 16
-15z m-127 -12 c-7 -2 -19 -2 -25 0 -7 3 -2 5 12 5 14 0 19 -2 13 -5z m-172
-64 c-5 -26 -9 -34 -10 -19 -1 27 9 73 15 67 2 -2 0 -23 -5 -48z m-4 -116 c-3
-10 -5 -4 -5 12 0 17 2 24 5 18 2 -7 2 -21 0 -30z m214 -21 c-5 -9 -19 -26
-32 -37 -19 -16 -18 -13 5 18 30 39 43 49 27 19z m-116 -22 c3 -6 -1 -7 -9 -4
-18 7 -21 14 -7 14 6 0 13 -4 16 -10z m60 0 c-3 -5 -12 -10 -18 -10 -7 0 -6 4
3 10 19 12 23 12 15 0z m-35 -30 c0 -5 -2 -10 -4 -10 -3 0 -8 5 -11 10 -3 6
-1 10 4 10 6 0 11 -4 11 -10z m115 -80 c3 -6 -1 -7 -9 -4 -18 7 -21 14 -7 14
6 0 13 -4 16 -10z m-10 -30 c-3 -5 -12 -10 -18 -10 -7 0 -6 4 3 10 19 12 23
12 15 0z m-48 -46 c-3 -3 -12 -4 -19 -1 -8 3 -5 6 6 6 11 1 17 -2 13 -5z"/>
<path d="M6975 3690 c-120 -16 -226 -72 -278 -147 -34 -49 -79 -151 -69 -157
4 -2 64 -15 132 -27 86 -15 125 -19 128 -11 9 28 51 79 81 99 29 19 47 23 118
23 137 0 181 -31 186 -130 2 -52 2 -53 -36 -66 -21 -7 -104 -27 -184 -44 -182
-39 -254 -62 -321 -100 -103 -60 -159 -195 -133 -322 30 -148 132 -237 291
-257 136 -17 271 21 368 104 29 25 43 32 46 23 3 -7 11 -33 19 -58 l14 -45
142 -3 c134 -2 143 -1 136 15 -49 130 -48 119 -54 508 l-6 370 -28 57 c-47 97
-143 149 -305 168 -98 11 -160 11 -247 0z m302 -682 c-3 -51 -10 -106 -17
-123 -38 -99 -186 -162 -283 -121 -44 18 -85 68 -93 113 -8 43 15 95 56 125
19 14 274 88 334 97 5 0 6 -39 3 -91z m273 48 c0 -3 -4 -8 -10 -11 -5 -3 -10
-1 -10 4 0 6 5 11 10 11 6 0 10 -2 10 -4z m-6 -62 c3 -8 2 -12 -4 -9 -6 3 -10
10 -10 16 0 14 7 11 14 -7z m-91 -44 c-3 -11 0 -27 7 -35 8 -10 9 -15 1 -15
-13 0 -26 45 -16 59 10 17 14 13 8 -9z m-62 -77 c13 -16 12 -17 -3 -4 -10 7
-18 15 -18 17 0 8 8 3 21 -13z m6 -129 c-3 -3 -12 -4 -19 -1 -8 3 -5 6 6 6 11
1 17 -2 13 -5z"/>
<path d="M8153 3684 c-186 -39 -315 -184 -349 -392 -18 -113 -18 -260 1 -341
33 -137 124 -271 223 -326 163 -92 367 -64 492 66 l50 52 0 -129 c0 -115 -3
-135 -22 -174 -34 -66 -91 -92 -206 -93 -109 -1 -154 17 -175 71 l-15 37 -162
20 c-133 17 -163 18 -167 8 -9 -24 18 -137 43 -180 73 -127 272 -195 526 -180
220 13 354 82 415 214 49 106 53 160 53 769 l0 564 -135 0 -135 0 0 -74 0 -75
-53 54 c-105 105 -232 141 -384 109z m72 -64 c3 -6 -1 -7 -9 -4 -18 7 -21 14
-7 14 6 0 13 -4 16 -10z m-165 -72 c0 -6 -6 -5 -15 2 -8 7 -15 14 -15 16 0 2
7 1 15 -2 8 -4 15 -11 15 -16z m120 -28 c0 -5 -5 -10 -11 -10 -5 0 -7 5 -4 10
3 6 8 10 11 10 2 0 4 -4 4 -10z m-189 -18 c-6 -10 -8 -30 -5 -43 l5 -24 -11
23 c-9 22 1 62 16 62 2 0 0 -8 -5 -18z m144 -3 c20 0 20 -1 0 -8 -19 -8 -45 7
-45 25 0 5 5 3 12 -4 7 -7 21 -12 33 -13z m294 -48 c45 -23 98 -81 118 -128
23 -57 34 -182 23 -262 -23 -162 -113 -254 -251 -254 -43 0 -67 6 -102 26 -77
45 -113 112 -127 236 -22 192 38 345 152 391 42 16 146 12 187 -9z m-389 -66
c0 -7 -7 -18 -15 -25 -9 -8 -15 -8 -15 -2 0 6 6 12 13 15 9 3 8 13 -6 38 l-17
34 20 -24 c11 -13 20 -29 20 -36z m-185 -25 c-3 -5 -11 -10 -16 -10 -6 0 -7 5
-4 10 3 6 11 10 16 10 6 0 7 -4 4 -10z m86 -27 c13 -16 12 -17 -3 -4 -10 7
-18 15 -18 17 0 8 8 3 21 -13z m-46 -63 c10 -11 16 -20 13 -20 -3 0 -13 9 -23
20 -10 11 -16 20 -13 20 3 0 13 -9 23 -20z"/>
<path d="M9482 3689 c-185 -32 -325 -162 -389 -358 -24 -74 -29 -293 -9 -385
46 -204 177 -343 364 -386 66 -15 231 -15 296 -1 81 19 158 62 216 120 53 53
128 176 116 188 -6 6 -278 54 -282 50 -1 -1 -13 -25 -27 -53 -37 -72 -82 -99
-167 -99 -72 1 -110 16 -157 64 -41 41 -66 96 -71 159 l-4 52 366 0 367 0 -6
88 c-24 310 -146 491 -371 551 -60 15 -183 21 -242 10z m194 -235 c71 -34 119
-108 126 -194 l3 -45 -200 -2 c-110 -2 -208 0 -217 3 -22 7 -23 46 -3 105 21
58 58 105 103 129 46 24 141 26 188 4z"/>
<path d="M4190 3120 l0 -550 145 0 145 0 0 550 0 550 -145 0 -145 0 0 -550z"/>
<path d="M4727 1813 l-158 -4 3 -142 3 -142 158 -3 157 -3 0 151 c0 82 -1 149
-2 148 -2 -1 -74 -4 -161 -5z"/>
<path d="M5373 1813 l-153 -4 0 -824 0 -825 155 0 155 0 0 830 c0 457 -1 829
-2 828 -2 -1 -72 -4 -155 -5z m110 -895 c-9 -20 -10 -20 -10 10 0 22 4 29 10
23 7 -7 7 -18 0 -33z m-73 -133 c19 -19 31 -35 28 -35 -3 0 -22 16 -42 35 -21
19 -33 35 -29 35 5 0 24 -16 43 -35z m-90 11 c0 -3 -4 -8 -10 -11 -5 -3 -10
-1 -10 4 0 6 5 11 10 11 6 0 10 -2 10 -4z m-52 -46 c-7 -10 -14 -18 -15 -16
-6 6 9 36 18 36 5 0 4 -9 -3 -20z m53 3 c13 -16 12 -17 -3 -4 -10 7 -18 15
-18 17 0 8 8 3 21 -13z m-1 -113 c0 -5 -2 -10 -4 -10 -3 0 -8 5 -11 10 -3 6
-1 10 4 10 6 0 11 -4 11 -10z"/>
<path d="M7130 985 l0 -825 150 0 150 0 0 84 0 85 51 -54 c71 -75 227 -145
324 -145 54 0 157 25 206 51 75 38 174 145 218 236 58 119 74 213 69 392 -4
125 -9 157 -32 224 -58 170 -172 286 -325 331 -77 23 -217 21 -285 -3 -58 -20
-122 -60 -174 -109 l-32 -30 0 294 0 294 -160 0 -160 0 0 -825z m674 141 c124
-52 185 -199 174 -420 -5 -85 -11 -112 -37 -171 -27 -59 -29 -70 -16 -77 8 -5
15 -14 15 -19 0 -6 -7 -3 -16 5 -14 14 -20 12 -64 -18 -61 -42 -95 -50 -169
-41 -67 8 -105 27 -140 67 -80 93 -106 189 -99 365 4 96 8 117 35 175 46 98
120 147 226 148 32 0 73 -6 91 -14z m173 -654 c-9 -2 -15 -8 -12 -13 4 -5 1
-9 -4 -9 -13 0 -13 3 -5 24 3 9 12 12 22 8 16 -6 15 -7 -1 -10z m260 -4 c-3
-8 -6 -5 -6 6 -1 11 2 17 5 13 3 -3 4 -12 1 -19z m-367 -68 c-25 -16 -49 -30
-54 -30 -5 0 11 13 35 30 24 16 49 30 54 30 6 0 -10 -14 -35 -30z m239 -14
c-3 -3 -11 5 -18 17 -13 21 -12 21 5 5 10 -10 16 -20 13 -22z m-542 2 c-3 -8
-6 -5 -6 6 -1 11 2 17 5 13 3 -3 4 -12 1 -19z m33 -12 c0 -2 -7 -7 -16 -10 -8
-3 -12 -2 -9 4 6 10 25 14 25 6z m47 -28 c-3 -7 -5 -2 -5 12 0 14 2 19 5 13 2
-7 2 -19 0 -25z m170 -10 c-3 -8 -6 -5 -6 6 -1 11 2 17 5 13 3 -3 4 -12 1 -19z
m-50 -50 c-3 -8 -6 -5 -6 6 -1 11 2 17 5 13 3 -3 4 -12 1 -19z m200 6 c-3 -3
-12 -4 -19 -1 -8 3 -5 6 6 6 11 1 17 -2 13 -5z m-320 -41 c-3 -10 -5 -4 -5 12
0 17 2 24 5 18 2 -7 2 -21 0 -30z m133 -27 c0 -6 -7 -1 -15 10 -8 10 -15 23
-15 28 0 6 7 1 15 -10 8 -10 15 -23 15 -28z m-194 9 c-1 -8 -6 -18 -11 -22 -4
-4 -5 -2 -1 5 4 7 2 12 -6 12 -9 0 -9 3 2 10 19 12 19 13 16 -5z m97 -45 c3
-11 1 -18 -4 -14 -5 3 -9 12 -9 20 0 20 7 17 13 -6z m184 4 c-3 -3 -12 -4 -19
-1 -8 3 -5 6 6 6 11 1 17 -2 13 -5z m98 -4 c-3 -5 -16 -10 -28 -9 -20 1 -20 2
3 9 14 4 26 8 28 9 2 1 0 -3 -3 -9z m-101 -19 c4 -5 -3 -7 -14 -4 -23 6 -26
13 -6 13 8 0 17 -4 20 -9z"/>
<path d="M8560 985 l0 -825 160 0 160 0 0 825 0 825 -160 0 -160 0 0 -825z"/>
<path d="M1085 1379 c-141 -11 -215 -40 -296 -116 -72 -67 -146 -223 -106
-223 6 0 70 -11 140 -24 l128 -23 15 36 c35 83 88 111 210 111 126 0 176 -30
194 -116 18 -86 17 -87 -128 -122 -70 -17 -165 -38 -210 -47 -212 -42 -315
-104 -371 -224 -22 -47 -26 -70 -26 -146 0 -76 4 -98 26 -145 54 -113 154
-181 294 -201 139 -20 301 25 397 110 20 17 40 31 44 31 5 0 17 -27 27 -60
l17 -60 155 0 c85 0 155 2 155 4 0 2 -11 33 -25 70 -37 99 -47 219 -40 481 7
226 -1 376 -25 456 -16 55 -82 124 -153 158 -92 45 -251 64 -422 50z m291
-748 c-3 -55 -11 -112 -17 -128 -15 -41 -67 -91 -123 -120 -42 -21 -60 -24
-123 -21 -71 3 -74 5 -116 46 -41 41 -42 44 -42 106 0 55 4 68 25 91 14 15 34
32 44 37 22 12 310 86 340 87 18 1 19 -5 12 -98z m284 -85 c0 -2 -8 -10 -17
-17 -16 -13 -17 -12 -4 4 13 16 21 21 21 13z m-31 -109 c0 -9 -2 -8 -6 1 -2 6
-10 9 -15 6 -7 -4 -8 -2 -4 5 9 13 26 5 25 -12z m18 -169 c-3 -8 -6 -5 -6 6
-1 11 2 17 5 13 3 -3 4 -12 1 -19z"/>
<path d="M3658 1379 c-149 -12 -245 -54 -317 -135 -63 -72 -121 -204 -90 -204
8 0 72 -11 142 -24 l128 -23 19 36 c44 87 90 111 212 111 132 0 187 -40 196
-144 l4 -54 -64 -20 c-36 -11 -132 -34 -214 -52 -233 -49 -294 -72 -369 -141
-98 -91 -129 -258 -70 -387 61 -136 184 -206 365 -206 132 -1 230 34 335 120
l41 33 18 -65 18 -64 160 0 c158 0 159 0 147 21 -6 12 -20 46 -32 77 -19 53
-21 86 -27 452 -8 448 -11 469 -82 546 -92 100 -276 144 -520 123z m290 -751
c-7 -148 -43 -208 -153 -253 -47 -20 -145 -21 -182 -1 -84 43 -117 141 -73
214 25 40 78 65 197 93 49 12 108 27 133 34 86 25 83 28 78 -87z"/>
<path d="M6235 1378 c-200 -15 -313 -82 -385 -231 -22 -46 -40 -88 -40 -93 0
-9 228 -54 271 -54 9 0 22 13 29 29 17 42 66 88 107 102 44 14 197 7 235 -11
35 -17 68 -84 68 -138 0 -55 22 -47 -365 -132 -193 -43 -281 -95 -340 -201
-28 -51 -30 -61 -30 -164 0 -96 3 -116 23 -153 78 -147 243 -221 432 -194 99
14 166 42 247 103 l61 47 18 -64 19 -64 158 0 157 0 -16 37 c-44 103 -46 125
-54 533 -8 444 -9 454 -81 528 -96 101 -261 139 -514 120z m285 -730 c0 -46
-5 -100 -9 -122 -22 -91 -130 -168 -238 -168 -75 0 -115 20 -151 74 -39 60
-38 125 3 168 17 18 39 37 50 42 18 11 306 85 333 87 9 1 12 -22 12 -81z"/>
<path d="M9578 1378 c-216 -26 -382 -181 -445 -418 -22 -82 -25 -318 -4 -400
25 -100 84 -212 143 -271 110 -111 225 -153 413 -153 187 -1 309 46 412 158
48 52 123 180 112 190 -4 3 -299 56 -313 56 -3 0 -6 -8 -6 -18 0 -35 -59 -110
-104 -131 -99 -49 -230 -12 -293 83 -32 47 -46 86 -56 159 l-6 37 400 0 399 0
0 58 c0 84 -26 240 -50 305 -95 253 -315 380 -602 345z m198 -257 c72 -33 127
-123 136 -221 l3 -35 -239 -3 -239 -2 6 55 c10 94 77 187 157 218 34 13 136 6
176 -12z"/>
<path d="M1850 1356 c0 -4 214 -535 353 -873 27 -68 53 -120 58 -117 5 3 6 -1
4 -9 -3 -7 10 -53 28 -103 l34 -89 145 -3 144 -3 49 123 c26 68 133 336 236
596 104 260 189 475 189 477 0 3 -73 5 -162 5 l-163 0 -93 -253 c-52 -138
-118 -321 -147 -405 -29 -85 -55 -150 -58 -145 -2 4 -20 58 -40 118 -30 93
-119 340 -223 618 l-26 67 -164 0 c-90 0 -164 -2 -164 -4z"/>
<path d="M4570 760 l0 -600 160 0 160 0 0 600 0 600 -160 0 -160 0 0 -600z
m286 -434 c0 -13 -4 -22 -8 -20 -13 8 -56 -19 -52 -31 3 -7 1 -16 -5 -20 -7
-3 -11 2 -11 13 0 12 14 28 35 41 19 11 35 25 35 31 0 5 2 10 4 10 2 0 3 -11
2 -24z m-41 -96 c3 -5 1 -10 -4 -10 -6 0 -11 5 -11 10 0 6 2 10 4 10 3 0 8 -4
11 -10z m30 -30 c3 -5 1 -10 -4 -10 -6 0 -11 5 -11 10 0 6 2 10 4 10 3 0 8 -4
11 -10z m-118 -16 c-3 -3 -12 -4 -19 -1 -8 3 -5 6 6 6 11 1 17 -2 13 -5z"/>
</g>
</svg>
