<?xml version="1.0" standalone="no"?>
<!DOCTYPE svg PUBLIC "-//W3C//DTD SVG 20010904//EN"
 "http://www.w3.org/TR/2001/REC-SVG-20010904/DTD/svg10.dtd">
<svg version="1.0" xmlns="http://www.w3.org/2000/svg"
 width="450.000000pt" height="450.000000pt" viewBox="0 0 450.000000 450.000000"
 preserveAspectRatio="xMidYMid meet">

<g transform="translate(0.000000,450.000000) scale(0.100000,-0.100000)"
fill="#000000" stroke="none">
<path d="M1887 4475 c-489 -92 -879 -289 -1211 -614 -188 -184 -332 -383 -447
-616 -182 -371 -247 -716 -220 -1165 32 -540 274 -1058 673 -1446 180 -175
348 -294 572 -404 293 -144 574 -213 916 -226 654 -25 1263 222 1713 696 196
206 316 392 457 705 46 104 105 321 136 505 21 123 28 384 15 538 -75 914
-718 1703 -1593 1957 -252 74 -282 77 -623 81 -241 2 -328 0 -388 -11z m-442
-790 c796 -462 818 -475 834 -475 15 0 125 62 611 347 477 278 471 275 534
249 51 -21 78 -69 73 -129 -5 -56 -32 -88 -107 -130 -25 -13 -117 -66 -205
-117 -88 -51 -224 -130 -302 -174 -79 -45 -143 -87 -143 -93 0 -9 18 -13 58
-13 127 0 430 -43 552 -79 261 -75 343 -159 409 -418 41 -160 54 -325 55 -678
0 -422 -22 -628 -89 -825 -84 -248 -274 -333 -870 -391 -177 -18 -933 -18
-1125 -1 -293 26 -405 45 -556 93 -160 52 -247 117 -299 223 -30 62 -70 202
-90 316 -26 151 -40 553 -27 808 19 365 63 567 153 698 87 127 342 210 758
246 110 10 141 15 139 26 -2 8 -92 64 -200 125 -385 219 -491 282 -529 318
-36 33 -39 41 -39 87 0 42 5 57 28 83 30 34 80 49 127 39 17 -4 129 -65 250
-135z"/>
<path d="M1940 2845 c-350 -20 -555 -52 -649 -99 -74 -38 -126 -104 -156 -198
-51 -161 -72 -456 -55 -777 20 -387 67 -529 197 -598 82 -44 148 -60 353 -83
447 -50 945 -48 1360 5 338 43 422 111 475 387 29 151 38 380 26 628 -13 257
-28 364 -68 470 -54 148 -155 201 -446 235 -339 39 -712 50 -1037 30z m162
-162 c3 -36 6 -38 68 -63 36 -14 75 -31 88 -38 20 -11 25 -10 48 14 l27 26 55
-56 56 -55 -22 -24 c-22 -24 -28 -48 -14 -61 4 -4 18 -38 32 -74 25 -65 27
-67 63 -70 l37 -3 0 -80 0 -79 -39 0 c-38 0 -39 -1 -58 -57 -11 -32 -26 -72
-34 -90 -12 -30 -11 -34 11 -58 l24 -26 -56 -56 -56 -56 -26 29 -25 29 -48
-26 c-26 -15 -64 -30 -83 -34 -42 -9 -50 -19 -50 -63 l0 -33 -72 3 -73 3 -3
32 c-4 38 -12 46 -78 67 -28 9 -60 23 -70 31 -25 19 -28 19 -62 -9 l-29 -25
-53 54 -54 55 24 25 c22 24 23 28 11 58 -7 18 -22 58 -33 90 -21 56 -22 57
-59 57 l-39 0 0 80 0 80 38 0 c36 0 38 2 58 58 12 31 28 71 35 89 12 30 11 34
-11 58 l-24 26 57 57 57 57 26 -27 26 -26 62 28 c33 15 73 32 89 38 22 10 27
18 27 47 l0 35 74 0 75 0 3 -37z m735 -803 c3 0 3 -13 0 -29 -5 -23 0 -34 31
-64 28 -27 43 -34 62 -31 23 5 28 0 48 -48 l23 -53 -21 -14 c-29 -19 -29 -112
0 -132 20 -14 20 -14 -1 -71 -20 -53 -23 -56 -45 -46 -20 9 -27 6 -59 -28 -29
-30 -35 -44 -31 -65 5 -24 0 -29 -46 -48 -62 -26 -65 -26 -73 -1 -5 17 -15 20
-61 20 -43 0 -56 -4 -66 -20 -16 -25 -18 -25 -77 1 -42 18 -47 23 -43 45 7 37
-53 97 -89 90 -24 -5 -29 0 -48 46 -26 62 -26 65 -1 73 17 5 20 15 20 60 0 44
-4 57 -21 69 l-22 15 19 53 c18 48 22 53 47 50 36 -4 96 57 94 95 -2 22 5 29
47 46 l49 21 15 -22 c12 -18 24 -22 68 -22 49 0 55 3 64 25 l9 25 51 -20 c28
-11 53 -20 57 -20z"/>
<path d="M1883 2500 c-119 -60 -185 -167 -186 -300 -1 -68 3 -86 32 -144 35
-71 85 -121 160 -158 38 -18 62 -23 136 -23 109 0 164 23 237 97 152 156 111
417 -84 523 -45 25 -67 30 -143 33 -85 3 -94 2 -152 -28z"/>
<path d="M2575 1761 c-52 -23 -101 -80 -115 -133 -25 -92 21 -198 104 -238 69
-33 161 -26 213 16 63 51 84 98 81 175 -4 87 -36 136 -109 173 -62 31 -117 33
-174 7z"/>
</g>
</svg>
